<svg width="156" height="226" viewBox="0 0 156 226" fill="none" xmlns="http://www.w3.org/2000/svg">
<rect x="30.275" width="127" height="209" rx="10" transform="rotate(8.32895 30.275 0)" fill="#4C8ECB"/>
<rect x="37.7314" y="11.1982" width="109" height="193" transform="rotate(8.32895 37.7314 11.1982)" fill="#BBD7F1"/>
<path d="M91.6501 53.3262C91.0501 57.4246 87.2413 60.2607 83.1428 59.6607C79.0444 59.0607 76.2083 55.2518 76.8084 51.1533C77.4084 47.0549 81.2172 44.2189 85.3157 44.8189C89.4141 45.4189 92.2502 49.2277 91.6501 53.3262Z" fill="#7D838B"/>
<path d="M72.7057 51.5634C72.2257 54.8421 76.1442 59.1414 70.2075 58.2723C66.9288 57.7922 64.2376 54.178 64.7176 50.8993C65.1976 47.6205 69.379 44.5071 72.6578 44.9871C75.9366 45.4671 73.1857 48.2846 72.7057 51.5634Z" fill="#7D838B"/>
<path d="M95.3907 55.3898C94.9106 58.6686 89.6206 61.1143 95.5573 61.9835C98.836 62.4635 102.45 59.7724 102.93 56.4936C103.41 53.2148 100.792 49.1059 97.5128 48.6259C94.2341 48.1459 95.8707 52.111 95.3907 55.3898Z" fill="#7D838B"/>
<path d="M70.0222 65.1024C70.194 62.7874 72.2938 61.1043 74.5907 61.4406L90.8258 63.8174C93.1227 64.1537 94.6519 66.3681 94.1529 68.6352L91.3509 81.3636C90.8998 83.413 88.9415 84.7654 86.8651 84.4614L73.2348 82.466L72.4675 82.3536C70.3911 82.0496 68.9026 80.1926 69.0579 78.0998L70.0222 65.1024Z" fill="#7D838B"/>
<path d="M73.3656 82.6291C73.4515 81.4716 74.5014 80.6301 75.6498 80.7982L84.2621 82.059C85.4106 82.2272 86.1752 83.3344 85.9256 84.4679L82.2616 101.113C82.036 102.137 81.0569 102.814 80.0187 102.662L73.8093 101.753C72.7711 101.601 72.0269 100.672 72.1045 99.6257L73.3656 82.6291Z" fill="#7D838B"/>
<path d="M59.1761 62.3837C59.2489 61.2159 60.3042 60.3597 61.462 60.5292L65.7969 61.1638C66.8684 61.3207 67.6205 62.3019 67.4934 63.3774L65.8502 77.2861C65.7181 78.4046 64.6887 79.1935 63.5743 79.0303L60.0089 78.5084C58.9797 78.3577 58.2378 77.4432 58.3025 76.4051L59.1761 62.3837Z" fill="#7D838B"/>
<path d="M61.9203 77.6641C61.9598 77.0007 62.3391 76.4047 62.9232 76.0878V76.0878C64.2192 75.3848 65.7917 76.341 65.7638 77.8151L65.7538 78.3388L65.8639 80.8537C65.8708 81.0105 65.89 81.1664 65.9212 81.3202L66.2272 82.8255C66.3973 83.6618 66.9155 84.3861 67.6521 84.8171L68.4617 85.2908C69.4698 85.8806 70.0439 87.0018 69.9332 88.1645L69.37 94.0813C69.2073 95.7899 67.6471 97.014 65.9489 96.7654L63.5496 96.4141C62.0088 96.1885 60.8967 94.8216 60.9895 93.2671L61.9203 77.6641Z" fill="#7D838B"/>
<path d="M105.341 69.1422C105.606 68.0026 104.84 66.8798 103.682 66.7103L99.3473 66.0756C98.2758 65.9188 97.2741 66.6432 97.0875 67.71L94.6747 81.506C94.4807 82.6155 95.2407 83.6663 96.3551 83.8295L99.9205 84.3514C100.95 84.5021 101.923 83.8387 102.158 82.8256L105.341 69.1422Z" fill="#7D838B"/>
<path d="M98.3314 82.9947C98.4837 82.3478 98.2912 81.6681 97.8224 81.197V81.197C96.7824 80.152 95.0017 80.6174 94.6059 82.0376L94.4653 82.5421L93.6389 84.92C93.5874 85.0682 93.5243 85.2121 93.4503 85.3505L92.7256 86.7048C92.323 87.4573 91.6189 88.0027 90.7897 88.2045L89.8782 88.4262C88.7434 88.7023 87.872 89.6119 87.6447 90.7574L86.4882 96.5874C86.1543 98.2709 87.2981 99.8909 88.9963 100.14L91.3957 100.491C92.9364 100.716 94.3937 99.7255 94.7504 98.2097L98.3314 82.9947Z" fill="#7D838B"/>
</svg>
